# xmcd
#
# Track frame offsets:
#	150
#	3972
#	19610
#	34139
#	50301
#	62893
#	75842
#	104757
#	120395
#	134924
#	151086
#	163678
#	176627
#
# Disc length: 2738 seconds
#
# Revision: 0
# Processed by: cddbd v1.5.2PL0 Copyright (c) Steve Scherf et al.
# Submitted via: EasyCDDAExtractor 9.0.0.1
#
DISCID=9e0ab00d
DTITLE=Wise - play guitar with... the blues brothers
DYEAR=2002
DGENRE=blues
TTITLE0=Tuning Notes
TTITLE1=Everbody Need Somebody To Love - Full Track
TTITLE2=Gimme Some Lovin' - Full Track
TTITLE3=Jailhouse Rock - Full Track
TTITLE4=Theme From Rawhide - Full Track
TTITLE5=Shake A Tail Feather - Full Track
TTITLE6=Sweet Home Chicago - Full Track
TTITLE7=Everbody Need Somebody To Love - Backing Track
TTITLE8=Gimme Some Lovin' - Backing Track
TTITLE9=Jailhouse Rock - Backing Track
TTITLE10=Theme From Rawhide - Backing Track
TTITLE11=Shake A Tail Feather - Backing Track
TTITLE12=Sweet Home Chicago - Backing Track
EXTD=
EXTT0=
EXTT1=
EXTT2=
EXTT3=
EXTT4=
EXTT5=
EXTT6=
EXTT7=
EXTT8=
EXTT9=
EXTT10=
EXTT11=
EXTT12=
PLAYORDER=
